{"title":"Away.and.Back.2015.WEBRip.XViD.AC3-Sorrow","uid":12163980,"size":1465498171,"categoryP":"video","categoryS":"movies","magnet":"?xt=urn:btih:053b19586bde66c0bdcd51c061c490270976effe&amp;dn=Away.and.Back.2015.WEBRip.XViD.AC3-Sorrow&amp;tr=udp%3A%2F%2Ftracker.openbittorrent.com%3A80&amp;tr=udp%3A%2F%2Fopen.demonii.com%3A1337&amp;tr=udp%3A%2F%2Ftracker.coppersurfer.tk%3A6969&amp;tr=udp%3A%2F%2Fexodus.desync.com%3A6969","seeders":0,"leechers":2,"uploader":null,"files":2,"time":1437988076,"description":"Away and Back 2015 WEBRip XViD AC3-Sorrow\n\nGeneral\nComplete name                            : Away.and.Back.2015.WEBRip.XViD.AC3-Sorrow.avi\nFormat                                   : AVI\nFormat/Info                              : Audio Video Interleave\nFile size                                : 1.36 GiB\nDuration                                 : 1h 36mn\nOverall bit rate                         : 2 027 Kbps\nWriting application                      : Lavf55.19.104\nWriting library                          : \n\nVideo\nID                                       : 0\nFormat                                   : MPEG-4 Visual\nFormat profile                           : Simple@L3\nFormat settings, BVOP                    : No\nFormat settings, QPel                    : No\nFormat settings, GMC                     : No warppoints\nFormat settings, Matrix                  : Default (H.263)\nCodec ID                                 : XVID\nCodec ID/Hint                            : XviD\nDuration                                 : 1h 36mn\nBit rate                                 : 1 569 Kbps\nWidth                                    : 720 pixels\nHeight                                   : 400 pixels\nDisplay aspect ratio                     : 16:9\nFrame rate                               : 23.976 fps\nColor space                              : YUV\nChroma subsampling                       : 4:2:0\nBit depth                                : 8 bits\nScan type                                : Progressive\nCompression mode                         : Lossy\nBits/(Pixel*Frame)                       : 0.227\nStream size                              : 1.06 GiB (77%)\nWriting library                          : XviD 64\n\nAudio\nID                                       : 1\nFormat                                   : AC-3\nFormat/Info                              : Audio Coding 3\nMode extension                           : CM (complete main)\nFormat settings, Endianness              : Big\nCodec ID                                 : 2000\nDuration                                 : 1h 36mn\nBit rate mode                            : Constant\nBit rate                                 : 448 Kbps\nChannel count                            : 2 channels\nChannel positions                        : Front: L R\nSampling rate                            : 48.0 KHz\nBit depth                                : 16 bits\nCompression mode                         : Lossy\nStream size                              : 309 MiB (22%)\nAlignment                                : Aligned on interleaves\nInterleave, duration                     : 32 ms (0.77 video frame)\nInterleave, preload duration             : 512 ms\n\n\n\nComedy:Drama\n\nHostility turns into something else between a widowed farmer and a pushy ornithologist who came to his farm to save a family of swans.\n\n\nDirector: Jeff Bleckner \n\nWriters: Jonah Lisa Dyer, Stephen Dyer \n\nStars: Jason Lee, Minka Kelly, Maggie Elizabeth Jones \n &lt;a href=&quot;\nhttp://www.imdb.com/title/tt4309834/&quot; rel=&quot;nofollow&quot; target=&quot;_NEW&quot;&gt;\nhttp://www.imdb.com/title/tt4309834/&lt;/a&gt;","torrent":{"xt":"urn:btih:053b19586bde66c0bdcd51c061c490270976effe","amp;dn":"Away.and.Back.2015.WEBRip.XViD.AC3-Sorrow","amp;tr":["udp%3A%2F%2Ftracker.openbittorrent.com%3A80","udp%3A%2F%2Fopen.demonii.com%3A1337","udp%3A%2F%2Ftracker.coppersurfer.tk%3A6969","udp%3A%2F%2Fexodus.desync.com%3A6969"],"infoHash":"053b19586bde66c0bdcd51c061c490270976effe","infoHashBuffer":{"type":"Buffer","data":[5,59,25,88,107,222,102,192,189,205,81,192,97,196,144,39,9,118,239,254]},"announce":[],"urlList":[]}}